<svg xmlns="http://www.w3.org/2000/svg" viewBox="0 0 24 24" fill="none" stroke="#4f46e5" stroke-width="2" stroke-linecap="round" stroke-linejoin="round">
  <path d="M12 5a3 3 0 0 0-3 3v1H8a2 2 0 0 0 0 4h1v1a3 3 0 0 0 6 0v-1h1a2 2 0 0 0 0-4h-1V8a3 3 0 0 0-3-3z"></path>
  <path d="M12 2v3"></path>
  <path d="M12 19v3"></path>
  <path d="M4.93 4.93l2.12 2.12"></path>
  <path d="M16.95 16.95l2.12 2.12"></path>
  <path d="M2 12h3"></path>
  <path d="M19 12h3"></path>
  <path d="M4.93 19.07l2.12-2.12"></path>
  <path d="M16.95 7.05l2.12-2.12"></path>
</svg>